<?xml version="1.0" standalone="no"?>
<!DOCTYPE svg PUBLIC "-//W3C//DTD SVG 20010904//EN"
 "http://www.w3.org/TR/2001/REC-SVG-20010904/DTD/svg10.dtd">
<svg version="1.0" xmlns="http://www.w3.org/2000/svg"
 width="260.000000pt" height="260.000000pt" viewBox="0 0 260.000000 260.000000"
 preserveAspectRatio="xMidYMid meet">
<metadata>
Created by potrace 1.11, written by Peter Selinger 2001-2013
</metadata>
<g transform="translate(0.000000,260.000000) scale(0.100000,-0.100000)"
fill="#000000" stroke="none">
<path d="M1158 1929 c-141 -20 -294 -79 -374 -144 -23 -19 -52 -54 -63 -78
-21 -43 -21 -56 -21 -471 1 -470 2 -481 61 -531 34 -28 75 -38 168 -39 66 0
176 10 190 18 4 3 7 195 6 428 0 233 3 430 7 440 21 45 194 66 263 33 73 -36
74 -43 75 -438 1 -380 3 -392 60 -440 34 -29 65 -37 159 -41 74 -3 193 12 201
25 3 5 5 201 5 436 -2 462 -3 476 -56 571 -59 106 -155 175 -297 213 -85 23
-283 32 -384 18z"/>
</g>
</svg>
